<?xml version="1.0" encoding="UTF-8"?>
<svg xmlns="http://www.w3.org/2000/svg" version="1.1" viewBox="0 0 512 512">
  <defs>
    <style>
      .cls-1 {
        fill: #ce0909;
      }
    </style>
  </defs>
  <!-- Generator: Adobe Illustrator 28.7.1, SVG Export Plug-In . SVG Version: 1.2.0 Build 142)  -->
  <g>
    <g id="_圖層_1" data-name="圖層_1">
      <path class="cls-1" d="M0,0h224v160h160v144H112v208H0V0ZM384,128h-128V0l128,128ZM176,352h32c30.9,0,56,25.1,56,56s-25.1,56-56,56h-16v48h-32v-160h16ZM208,432c13.3,0,24-10.7,24-24s-10.7-24-24-24h-16v48h16ZM304,352h32c26.5,0,48,21.5,48,48v64c0,26.5-21.5,48-48,48h-48v-160h16ZM336,480c8.8,0,16-7.2,16-16v-64c0-8.8-7.2-16-16-16h-16v96h16ZM416,352h80v32h-48v32h48v32h-48v64h-32v-160Z"/>
    </g>
  </g>
</svg>